<svg xmlns="http://www.w3.org/2000/svg" viewBox="0 0 200 200">
  <circle cx="100" cy="100" r="90" fill="white" filter="drop-shadow(0 4px 12px rgba(0,0,0,.22))"/>
  <circle cx="100" cy="100" r="82" fill="#1e1b4b"/>
  <!-- Glow behind bolt -->
  <path d="M112 28L68 106H104L88 172L148 86H110Z" fill="#fbbf24" opacity=".25" transform="scale(1.1) translate(-10 -10)"/>
  <!-- Lightning bolt -->
  <path d="M112 28L68 106H104L88 172L148 86H110Z" fill="#fbbf24"/>
  <path d="M112 28L68 106H104L88 172L148 86H110Z" fill="none" stroke="#f59e0b" stroke-width="2.5" stroke-linejoin="round"/>
  <!-- Highlight -->
  <path d="M108 38L80 96H108L96 148" stroke="white" stroke-width="4" fill="none" stroke-linecap="round" stroke-linejoin="round" opacity=".35"/>
  <!-- Sparks -->
  <circle cx="60" cy="80" r="3" fill="#fbbf24" opacity=".6"/>
  <circle cx="148" cy="130" r="3" fill="#fbbf24" opacity=".6"/>
  <circle cx="52" cy="120" r="2" fill="#fde68a" opacity=".5"/>
  <circle cx="155" cy="70" r="2" fill="#fde68a" opacity=".5"/>
  <!-- Speed lines -->
  <line x1="38" y1="90" x2="58" y2="90" stroke="#fbbf24" stroke-width="2.5" stroke-linecap="round" opacity=".5"/>
  <line x1="34" y1="104" x2="56" y2="104" stroke="#fbbf24" stroke-width="2" stroke-linecap="round" opacity=".4"/>
</svg>
