<svg xmlns="http://www.w3.org/2000/svg" viewBox="0 0 200 200">
  <circle cx="100" cy="100" r="90" fill="white" filter="drop-shadow(0 4px 12px rgba(0,0,0,.22))"/>
  <circle cx="100" cy="100" r="82" fill="#dbeafe"/>
  <!-- Cloud shadow -->
  <path d="M55 118C43 118 34 109 34 97C34 86 42 77 53 76C53 62 64 52 78 52C84 52 90 54 95 59C98 53 105 48 114 48C128 48 140 60 140 74C140 74 142 74 144 74C154 74 162 82 162 92C162 102 154 110 144 110Z" fill="#93c5fd" opacity=".4" transform="translate(2 8)"/>
  <!-- Cloud main -->
  <path d="M55 116C43 116 34 107 34 95C34 84 42 75 53 74C53 60 64 50 78 50C84 50 90 52 95 57C98 51 105 46 114 46C128 46 140 58 140 72C140 72 142 72 144 72C154 72 162 80 162 90C162 100 154 108 144 108H55Z" fill="white"/>
  <!-- Cloud shading -->
  <path d="M55 116C43 116 34 107 34 95C34 84 42 75 53 74" stroke="#bfdbfe" stroke-width="3" fill="none"/>
  <!-- Face -->
  <circle cx="86" cy="88" r="5" fill="#3b82f6"/>
  <circle cx="114" cy="88" r="5" fill="#3b82f6"/>
  <path d="M86 100Q100 112 114 100" stroke="#3b82f6" stroke-width="3.5" fill="none" stroke-linecap="round"/>
  <!-- Blush -->
  <ellipse cx="74" cy="97" rx="8" ry="5" fill="#fca5a5" opacity=".5"/>
  <ellipse cx="126" cy="97" rx="8" ry="5" fill="#fca5a5" opacity=".5"/>
  <!-- Rain drops -->
  <ellipse cx="72" cy="128" rx="3" ry="5" fill="#93c5fd"/>
  <ellipse cx="90" cy="132" rx="3" ry="5" fill="#93c5fd"/>
  <ellipse cx="108" cy="128" rx="3" ry="5" fill="#93c5fd"/>
  <ellipse cx="126" cy="132" rx="3" ry="5" fill="#93c5fd"/>
</svg>
