<svg xmlns="http://www.w3.org/2000/svg" viewBox="0 0 200 200">
  <circle cx="100" cy="100" r="90" fill="white" filter="drop-shadow(0 4px 12px rgba(0,0,0,.22))"/>
  <circle cx="100" cy="100" r="82" fill="#fdf2f8"/>
  <!-- Petals -->
  <ellipse cx="100" cy="68" rx="16" ry="26" fill="#f9a8d4"/>
  <ellipse cx="100" cy="132" rx="16" ry="26" fill="#f9a8d4"/>
  <ellipse cx="68" cy="100" rx="26" ry="16" fill="#f9a8d4"/>
  <ellipse cx="132" cy="100" rx="26" ry="16" fill="#f9a8d4"/>
  <ellipse cx="77" cy="77" rx="16" ry="26" fill="#fda4af" transform="rotate(-45 77 77)"/>
  <ellipse cx="123" cy="77" rx="16" ry="26" fill="#fda4af" transform="rotate(45 123 77)"/>
  <ellipse cx="77" cy="123" rx="16" ry="26" fill="#fda4af" transform="rotate(45 77 123)"/>
  <ellipse cx="123" cy="123" rx="16" ry="26" fill="#fda4af" transform="rotate(-45 123 123)"/>
  <!-- Center -->
  <circle cx="100" cy="100" r="22" fill="#fbbf24"/>
  <circle cx="100" cy="100" r="16" fill="#f59e0b"/>
  <!-- Center dots -->
  <circle cx="93" cy="95" r="2.5" fill="#92400e"/>
  <circle cx="100" cy="92" r="2.5" fill="#92400e"/>
  <circle cx="107" cy="95" r="2.5" fill="#92400e"/>
  <circle cx="93" cy="105" r="2.5" fill="#92400e"/>
  <circle cx="100" cy="108" r="2.5" fill="#92400e"/>
  <circle cx="107" cy="105" r="2.5" fill="#92400e"/>
  <!-- Floating petals -->
  <ellipse cx="148" cy="60" rx="6" ry="10" fill="#fda4af" opacity=".7" transform="rotate(30 148 60)"/>
  <ellipse cx="58" cy="148" rx="5" ry="8" fill="#f9a8d4" opacity=".7" transform="rotate(-20 58 148)"/>
</svg>
