<svg xmlns="http://www.w3.org/2000/svg" viewBox="0 0 200 200">
  <circle cx="100" cy="100" r="90" fill="white" filter="drop-shadow(0 4px 12px rgba(0,0,0,.22))"/>
  <circle cx="100" cy="100" r="82" fill="#fff0f6"/>
  <!-- Heart shadow -->
  <path d="M100 158C100 158 44 122 44 82C44 62 58 48 76 48C88 48 98 56 100 64C102 56 112 48 124 48C142 48 156 62 156 82C156 122 100 158 100 158Z" fill="#fca5a5" opacity=".4" transform="translate(0 6)"/>
  <!-- Heart main -->
  <path d="M100 152C100 152 44 116 44 76C44 56 58 42 76 42C88 42 98 50 100 58C102 50 112 42 124 42C142 42 156 56 156 76C156 116 100 152 100 152Z" fill="#ff006e"/>
  <!-- Heart shine -->
  <path d="M72 56C64 62 60 72 62 80" stroke="white" stroke-width="5" fill="none" stroke-linecap="round" opacity=".5"/>
  <!-- Kawaii face -->
  <circle cx="86" cy="88" r="6" fill="#2d0014"/>
  <circle cx="114" cy="88" r="6" fill="#2d0014"/>
  <!-- Eye shine -->
  <circle cx="88" cy="86" r="2" fill="white"/>
  <circle cx="116" cy="86" r="2" fill="white"/>
  <!-- Smile -->
  <path d="M86 104Q100 116 114 104" stroke="#2d0014" stroke-width="4" fill="none" stroke-linecap="round"/>
  <!-- Blush -->
  <ellipse cx="74" cy="100" rx="10" ry="6" fill="#ff9eb5" opacity=".55"/>
  <ellipse cx="126" cy="100" rx="10" ry="6" fill="#ff9eb5" opacity=".55"/>
</svg>
