<svg xmlns="http://www.w3.org/2000/svg" viewBox="0 0 200 200">
  <circle cx="100" cy="100" r="90" fill="white" filter="drop-shadow(0 4px 12px rgba(0,0,0,.22))"/>
  <circle cx="100" cy="100" r="82" fill="#1a0a1a"/>
  <!-- Sparkles background -->
  <path d="M44 68L46 74L52 68L46 62Z" fill="#c084fc" opacity=".5"/>
  <path d="M152 120L154 126L160 120L154 114Z" fill="#f0abfc" opacity=".5"/>
  <path d="M148 54L150 58L154 54L150 50Z" fill="#e879f9" opacity=".4"/>
  <path d="M48 138L50 142L54 138L50 134Z" fill="#c084fc" opacity=".4"/>
  <!-- Nail polish bottle shadow -->
  <ellipse cx="102" cy="152" rx="22" ry="6" fill="#c084fc" opacity=".25"/>
  <!-- Nail polish bottle body -->
  <rect x="82" y="90" width="36" height="58" rx="10" fill="url(#ng)"/>
  <defs>
    <linearGradient id="ng" x1="82" y1="90" x2="118" y2="148" gradientUnits="userSpaceOnUse">
      <stop offset="0%" stop-color="#e879f9"/>
      <stop offset="100%" stop-color="#9333ea"/>
    </linearGradient>
  </defs>
  <rect x="82" y="90" width="36" height="58" rx="10" fill="none" stroke="#c026d3" stroke-width="2"/>
  <!-- Bottle shoulder -->
  <rect x="86" y="82" width="28" height="14" rx="5" fill="#d946ef"/>
  <rect x="86" y="82" width="28" height="14" rx="5" fill="none" stroke="#c026d3" stroke-width="1.5"/>
  <!-- Bottle cap -->
  <rect x="90" y="56" width="20" height="30" rx="8" fill="#4a044e"/>
  <rect x="90" y="56" width="20" height="30" rx="8" fill="none" stroke="#7e22ce" stroke-width="2"/>
  <!-- Cap highlight -->
  <rect x="94" y="62" width="6" height="16" rx="3" fill="#7e22ce" opacity=".5"/>
  <!-- Brush drip -->
  <path d="M100 86C100 86 98 80 99 74C99.5 71 100 70 100 68" stroke="#e879f9" stroke-width="3" fill="none" stroke-linecap="round"/>
  <ellipse cx="100" cy="67" rx="3" ry="5" fill="#e879f9"/>
  <!-- Bottle shine -->
  <rect x="88" y="96" width="8" height="24" rx="4" fill="white" opacity=".2"/>
  <!-- Sparkle dots -->
  <circle cx="136" cy="80" r="3" fill="#e879f9" opacity=".7"/>
  <circle cx="62" cy="110" r="3" fill="#f0abfc" opacity=".6"/>
  <circle cx="140" cy="148" r="2" fill="#c084fc" opacity=".5"/>
</svg>
