<svg xmlns="http://www.w3.org/2000/svg" viewBox="0 0 200 200">
  <circle cx="100" cy="100" r="90" fill="white" filter="drop-shadow(0 4px 12px rgba(0,0,0,.22))"/>
  <circle cx="100" cy="100" r="82" fill="#0a0a12"/>
  <!-- Speed lines background -->
  <line x1="100" y1="100" x2="22" y2="22" stroke="#1e3a5f" stroke-width="2" opacity=".5"/>
  <line x1="100" y1="100" x2="100" y2="18" stroke="#1e3a5f" stroke-width="2" opacity=".5"/>
  <line x1="100" y1="100" x2="178" y2="22" stroke="#1e3a5f" stroke-width="2" opacity=".5"/>
  <line x1="100" y1="100" x2="182" y2="100" stroke="#1e3a5f" stroke-width="2" opacity=".5"/>
  <line x1="100" y1="100" x2="178" y2="178" stroke="#1e3a5f" stroke-width="2" opacity=".5"/>
  <line x1="100" y1="100" x2="100" y2="182" stroke="#1e3a5f" stroke-width="2" opacity=".5"/>
  <line x1="100" y1="100" x2="22" y2="178" stroke="#1e3a5f" stroke-width="2" opacity=".5"/>
  <line x1="100" y1="100" x2="18" y2="100" stroke="#1e3a5f" stroke-width="2" opacity=".5"/>
  <!-- Face shape -->
  <path d="M70 72C70 60 80 50 100 50C120 50 130 60 130 72L128 114C128 124 116 134 100 138C84 134 72 124 72 114Z" fill="#f5c5a0"/>
  <!-- Hair -->
  <path d="M68 80C64 64 72 44 100 42C128 40 138 58 134 78" fill="#1a1a2e"/>
  <path d="M68 80L66 68L70 58L76 52L84 48L100 46L116 48L124 52L130 60L134 70L132 80" fill="#1a1a2e"/>
  <!-- Hair spikes -->
  <path d="M74 56L66 40L80 52Z" fill="#1a1a2e"/>
  <path d="M88 47L86 30L96 46Z" fill="#1a1a2e"/>
  <path d="M100 46L102 28L108 46Z" fill="#1a1a2e"/>
  <path d="M114 50L118 32L122 54Z" fill="#1a1a2e"/>
  <path d="M126 62L134 46L130 68Z" fill="#1a1a2e"/>
  <!-- Eyes — large anime eyes -->
  <ellipse cx="84" cy="88" rx="12" ry="14" fill="white"/>
  <ellipse cx="116" cy="88" rx="12" ry="14" fill="white"/>
  <!-- Eye outlines -->
  <path d="M72 84C72 82 76 78 84 78C92 78 96 82 96 84" fill="#1a1a2e"/>
  <path d="M104 84C104 82 108 78 116 78C124 78 128 82 128 84" fill="#1a1a2e"/>
  <!-- Irises -->
  <circle cx="84" cy="91" r="9" fill="#3b82f6"/>
  <circle cx="116" cy="91" r="9" fill="#3b82f6"/>
  <!-- Pupils -->
  <circle cx="84" cy="91" r="5" fill="#0a0a12"/>
  <circle cx="116" cy="91" r="5" fill="#0a0a12"/>
  <!-- Eye shines -->
  <circle cx="80" cy="87" r="3" fill="white"/>
  <circle cx="112" cy="87" r="3" fill="white"/>
  <circle cx="87" cy="95" r="1.5" fill="white" opacity=".5"/>
  <circle cx="119" cy="95" r="1.5" fill="white" opacity=".5"/>
  <!-- Nose + mouth -->
  <path d="M97 108Q100 112 103 108" stroke="#c68642" stroke-width="2" fill="none"/>
  <path d="M86 118Q100 130 114 118" stroke="#c68642" stroke-width="3" fill="none" stroke-linecap="round"/>
  <!-- Blush / power marks -->
  <ellipse cx="74" cy="108" rx="8" ry="5" fill="#f87171" opacity=".4"/>
  <ellipse cx="126" cy="108" rx="8" ry="5" fill="#f87171" opacity=".4"/>
  <!-- Crossed slash marks on cheeks (battle scars) -->
  <line x1="70" y1="100" x2="76" y2="106" stroke="#f87171" stroke-width="2" stroke-linecap="round" opacity=".7"/>
  <line x1="76" y1="100" x2="70" y2="106" stroke="#f87171" stroke-width="2" stroke-linecap="round" opacity=".7"/>
  <!-- Glow aura -->
  <circle cx="100" cy="90" r="70" fill="none" stroke="#3b82f6" stroke-width="3" opacity=".1"/>
  <!-- Energy burst at sides -->
  <path d="M30 90L42 96L30 102" fill="none" stroke="#fbbf24" stroke-width="2.5" stroke-linecap="round" opacity=".7"/>
  <path d="M170 90L158 96L170 102" fill="none" stroke="#fbbf24" stroke-width="2.5" stroke-linecap="round" opacity=".7"/>
</svg>
