<svg xmlns="http://www.w3.org/2000/svg" viewBox="0 0 200 200">
  <circle cx="100" cy="105" r="88" fill="white" filter="drop-shadow(0 4px 12px rgba(0,0,0,.22))"/>
  <path d="M100 25C118 38 140 33 132 62C150 44 152 74 138 94C156 76 158 104 144 122C156 108 160 130 150 146C138 164 120 174 100 175C80 174 62 164 50 146C40 130 44 108 56 122C42 104 44 76 62 94C48 74 50 44 68 62C60 33 82 38 100 25Z" fill="#ff6b35"/>
  <path d="M100 54C110 66 124 63 120 79C130 69 130 87 122 98C130 87 132 104 126 116C118 130 100 140 100 140C100 140 82 130 74 116C68 104 70 87 78 98C70 87 70 69 80 79C76 63 90 66 100 54Z" fill="#ffbe0b"/>
  <path d="M100 80C104 88 110 87 108 94C112 90 112 96 109 101C113 96 114 102 112 107C109 113 100 118 100 118C100 118 91 113 88 107C86 102 87 96 91 101C88 96 88 90 92 94C90 87 96 88 100 80Z" fill="white" opacity=".7"/>
  <circle cx="89" cy="122" r="5" fill="#2d1600"/>
  <circle cx="111" cy="122" r="5" fill="#2d1600"/>
  <path d="M89 133Q100 143 111 133" stroke="#2d1600" stroke-width="3.5" fill="none" stroke-linecap="round"/>
</svg>
