<svg xmlns="http://www.w3.org/2000/svg" viewBox="0 0 200 200">
  <circle cx="100" cy="100" r="90" fill="white" filter="drop-shadow(0 4px 12px rgba(0,0,0,.22))"/>
  <circle cx="100" cy="100" r="82" fill="#fff8e1"/>
  <rect x="72" y="128" width="56" height="44" rx="10" fill="#c68642"/>
  <path d="M66 130C66 108 78 86 92 78C99 74 106 75 108 83C115 72 128 70 130 82C136 74 144 78 144 92C148 86 154 92 152 106C150 120 144 130 136 132H66Z" fill="#daa060"/>
  <path d="M78 130C76 112 80 94 90 84C94 79 103 77 107 84C110 76 120 74 122 84L118 106C114 100 106 102 104 110C102 118 104 130 104 130Z" fill="#daa060"/>
  <path d="M118 112Q128 112 138 116" stroke="#c68642" stroke-width="2.5" fill="none" stroke-linecap="round"/>
  <path d="M118 120Q128 120 138 124" stroke="#c68642" stroke-width="2.5" fill="none" stroke-linecap="round"/>
  <ellipse cx="94" cy="92" rx="7" ry="12" fill="#e8b882" opacity=".5"/>
</svg>
